<mxfile host="app.diagrams.net" agent="Mozilla/5.0 (Windows NT 10.0; Win64; x64) AppleWebKit/537.36 (KHTML, like Gecko) Chrome/139.0.0.0 Safari/537.36" version="28.1.0" pages="2">
  <diagram name="AS-IS" id="O9E3QVRjLYlltCBO5CC2">
    <mxGraphModel dx="1226" dy="660" grid="1" gridSize="10" guides="1" tooltips="1" connect="1" arrows="1" fold="1" page="1" pageScale="1" pageWidth="827" pageHeight="1169" math="0" shadow="0">
      <root>
        <mxCell id="0" />
        <mxCell id="1" parent="0" />
        <mxCell id="G7d9W_WRkZ0tDgpjF5aS-10" style="edgeStyle=orthogonalEdgeStyle;rounded=0;orthogonalLoop=1;jettySize=auto;html=1;" edge="1" parent="1" source="G7d9W_WRkZ0tDgpjF5aS-1" target="G7d9W_WRkZ0tDgpjF5aS-9">
          <mxGeometry relative="1" as="geometry" />
        </mxCell>
        <mxCell id="G7d9W_WRkZ0tDgpjF5aS-1" value="NETSMS" style="rounded=1;whiteSpace=wrap;html=1;" vertex="1" parent="1">
          <mxGeometry x="150" y="50" width="120" height="60" as="geometry" />
        </mxCell>
        <mxCell id="G7d9W_WRkZ0tDgpjF5aS-3" style="edgeStyle=orthogonalEdgeStyle;rounded=0;orthogonalLoop=1;jettySize=auto;html=1;entryX=0;entryY=0.5;entryDx=0;entryDy=0;" edge="1" parent="1" source="G7d9W_WRkZ0tDgpjF5aS-2" target="G7d9W_WRkZ0tDgpjF5aS-1">
          <mxGeometry relative="1" as="geometry" />
        </mxCell>
        <mxCell id="G7d9W_WRkZ0tDgpjF5aS-26" style="edgeStyle=orthogonalEdgeStyle;rounded=0;orthogonalLoop=1;jettySize=auto;html=1;entryX=0;entryY=0.5;entryDx=0;entryDy=0;" edge="1" parent="1" source="G7d9W_WRkZ0tDgpjF5aS-2" target="G7d9W_WRkZ0tDgpjF5aS-12">
          <mxGeometry relative="1" as="geometry" />
        </mxCell>
        <mxCell id="G7d9W_WRkZ0tDgpjF5aS-2" value="Acesso Restrito&amp;nbsp;&lt;div&gt;BKO Embratel&lt;/div&gt;" style="shape=umlActor;verticalLabelPosition=bottom;verticalAlign=top;html=1;outlineConnect=0;" vertex="1" parent="1">
          <mxGeometry x="62" y="50" width="30" height="60" as="geometry" />
        </mxCell>
        <mxCell id="G7d9W_WRkZ0tDgpjF5aS-4" value="Registra Contrato sem faturamento no NETSMS" style="rounded=1;whiteSpace=wrap;html=1;" vertex="1" parent="1">
          <mxGeometry x="490" y="50" width="120" height="60" as="geometry" />
        </mxCell>
        <mxCell id="G7d9W_WRkZ0tDgpjF5aS-6" value="- Contrato somente fictício&lt;div&gt;- Atualmente o CNPJ do consumidor é da Embratel/Claro&lt;/div&gt;&lt;div&gt;- Antigamente também era assim (Primesys, outros)&lt;/div&gt;" style="text;html=1;align=left;verticalAlign=middle;whiteSpace=wrap;rounded=0;fontStyle=2" vertex="1" parent="1">
          <mxGeometry x="460" y="90" width="180" height="130" as="geometry" />
        </mxCell>
        <mxCell id="G7d9W_WRkZ0tDgpjF5aS-7" value="NETSMS" style="shape=cylinder3;whiteSpace=wrap;html=1;boundedLbl=1;backgroundOutline=1;size=15;" vertex="1" parent="1">
          <mxGeometry x="650" y="120" width="170" height="80" as="geometry" />
        </mxCell>
        <mxCell id="G7d9W_WRkZ0tDgpjF5aS-8" style="edgeStyle=orthogonalEdgeStyle;rounded=0;orthogonalLoop=1;jettySize=auto;html=1;entryX=0.5;entryY=0;entryDx=0;entryDy=0;entryPerimeter=0;" edge="1" parent="1" source="G7d9W_WRkZ0tDgpjF5aS-4" target="G7d9W_WRkZ0tDgpjF5aS-7">
          <mxGeometry relative="1" as="geometry" />
        </mxCell>
        <mxCell id="G7d9W_WRkZ0tDgpjF5aS-11" style="edgeStyle=orthogonalEdgeStyle;rounded=0;orthogonalLoop=1;jettySize=auto;html=1;entryX=0;entryY=0.5;entryDx=0;entryDy=0;" edge="1" parent="1" source="G7d9W_WRkZ0tDgpjF5aS-9" target="G7d9W_WRkZ0tDgpjF5aS-4">
          <mxGeometry relative="1" as="geometry" />
        </mxCell>
        <mxCell id="G7d9W_WRkZ0tDgpjF5aS-9" value="Venda Prospect" style="rounded=1;whiteSpace=wrap;html=1;" vertex="1" parent="1">
          <mxGeometry x="320" y="50" width="120" height="60" as="geometry" />
        </mxCell>
        <mxCell id="G7d9W_WRkZ0tDgpjF5aS-14" value="" style="edgeStyle=orthogonalEdgeStyle;rounded=0;orthogonalLoop=1;jettySize=auto;html=1;" edge="1" parent="1" source="G7d9W_WRkZ0tDgpjF5aS-12" target="G7d9W_WRkZ0tDgpjF5aS-13">
          <mxGeometry relative="1" as="geometry" />
        </mxCell>
        <mxCell id="G7d9W_WRkZ0tDgpjF5aS-12" value="Venda Base" style="rounded=1;whiteSpace=wrap;html=1;" vertex="1" parent="1">
          <mxGeometry x="150" y="270" width="120" height="60" as="geometry" />
        </mxCell>
        <mxCell id="G7d9W_WRkZ0tDgpjF5aS-18" style="edgeStyle=orthogonalEdgeStyle;rounded=0;orthogonalLoop=1;jettySize=auto;html=1;entryX=0;entryY=0.5;entryDx=0;entryDy=0;" edge="1" parent="1" source="G7d9W_WRkZ0tDgpjF5aS-13" target="G7d9W_WRkZ0tDgpjF5aS-17">
          <mxGeometry relative="1" as="geometry" />
        </mxCell>
        <mxCell id="G7d9W_WRkZ0tDgpjF5aS-13" value="Mudança de Pacote" style="whiteSpace=wrap;html=1;rounded=1;" vertex="1" parent="1">
          <mxGeometry x="320" y="270" width="120" height="60" as="geometry" />
        </mxCell>
        <mxCell id="G7d9W_WRkZ0tDgpjF5aS-20" style="edgeStyle=orthogonalEdgeStyle;rounded=0;orthogonalLoop=1;jettySize=auto;html=1;entryX=0;entryY=0.5;entryDx=0;entryDy=0;" edge="1" parent="1" source="G7d9W_WRkZ0tDgpjF5aS-17" target="G7d9W_WRkZ0tDgpjF5aS-19">
          <mxGeometry relative="1" as="geometry" />
        </mxCell>
        <mxCell id="G7d9W_WRkZ0tDgpjF5aS-17" value="Checagem de Crédito" style="whiteSpace=wrap;html=1;rounded=1;" vertex="1" parent="1">
          <mxGeometry x="490" y="270" width="120" height="60" as="geometry" />
        </mxCell>
        <mxCell id="G7d9W_WRkZ0tDgpjF5aS-21" style="edgeStyle=orthogonalEdgeStyle;rounded=0;orthogonalLoop=1;jettySize=auto;html=1;" edge="1" parent="1" source="G7d9W_WRkZ0tDgpjF5aS-19" target="G7d9W_WRkZ0tDgpjF5aS-7">
          <mxGeometry relative="1" as="geometry" />
        </mxCell>
        <mxCell id="G7d9W_WRkZ0tDgpjF5aS-22" value="Sim - Altera pacote" style="edgeLabel;html=1;align=center;verticalAlign=middle;resizable=0;points=[];" vertex="1" connectable="0" parent="G7d9W_WRkZ0tDgpjF5aS-21">
          <mxGeometry x="0.04" y="2" relative="1" as="geometry">
            <mxPoint as="offset" />
          </mxGeometry>
        </mxCell>
        <mxCell id="G7d9W_WRkZ0tDgpjF5aS-24" style="edgeStyle=orthogonalEdgeStyle;rounded=0;orthogonalLoop=1;jettySize=auto;html=1;entryX=0.5;entryY=0;entryDx=0;entryDy=0;" edge="1" parent="1" source="G7d9W_WRkZ0tDgpjF5aS-19" target="G7d9W_WRkZ0tDgpjF5aS-23">
          <mxGeometry relative="1" as="geometry" />
        </mxCell>
        <mxCell id="G7d9W_WRkZ0tDgpjF5aS-25" value="Não" style="edgeLabel;html=1;align=center;verticalAlign=middle;resizable=0;points=[];" vertex="1" connectable="0" parent="G7d9W_WRkZ0tDgpjF5aS-24">
          <mxGeometry x="-0.1733" y="3" relative="1" as="geometry">
            <mxPoint as="offset" />
          </mxGeometry>
        </mxCell>
        <mxCell id="G7d9W_WRkZ0tDgpjF5aS-19" value="CNPJ Ativo" style="rhombus;whiteSpace=wrap;html=1;" vertex="1" parent="1">
          <mxGeometry x="695" y="260" width="80" height="80" as="geometry" />
        </mxCell>
        <mxCell id="G7d9W_WRkZ0tDgpjF5aS-29" value="" style="edgeStyle=orthogonalEdgeStyle;rounded=0;orthogonalLoop=1;jettySize=auto;html=1;" edge="1" parent="1" source="G7d9W_WRkZ0tDgpjF5aS-23" target="G7d9W_WRkZ0tDgpjF5aS-28">
          <mxGeometry relative="1" as="geometry" />
        </mxCell>
        <mxCell id="G7d9W_WRkZ0tDgpjF5aS-23" value="Aborta Mudança" style="rounded=1;whiteSpace=wrap;html=1;" vertex="1" parent="1">
          <mxGeometry x="675" y="400" width="120" height="60" as="geometry" />
        </mxCell>
        <mxCell id="G7d9W_WRkZ0tDgpjF5aS-27" value="&lt;div&gt;- Primesys está com CNPJ inativo. Impedimento de realizar mudança de titularidade.&lt;/div&gt;" style="text;html=1;align=left;verticalAlign=middle;whiteSpace=wrap;rounded=0;fontStyle=2" vertex="1" parent="1">
          <mxGeometry x="640" y="470" width="180" height="50" as="geometry" />
        </mxCell>
        <mxCell id="G7d9W_WRkZ0tDgpjF5aS-34" style="edgeStyle=orthogonalEdgeStyle;rounded=0;orthogonalLoop=1;jettySize=auto;html=1;entryX=1;entryY=0.5;entryDx=0;entryDy=0;" edge="1" parent="1" source="G7d9W_WRkZ0tDgpjF5aS-28" target="G7d9W_WRkZ0tDgpjF5aS-31">
          <mxGeometry relative="1" as="geometry" />
        </mxCell>
        <mxCell id="G7d9W_WRkZ0tDgpjF5aS-28" value="Alteração de Titularidade pra CNPJ ativo da Claro" style="whiteSpace=wrap;html=1;rounded=1;" vertex="1" parent="1">
          <mxGeometry x="490" y="400" width="120" height="60" as="geometry" />
        </mxCell>
        <mxCell id="G7d9W_WRkZ0tDgpjF5aS-32" style="edgeStyle=orthogonalEdgeStyle;rounded=0;orthogonalLoop=1;jettySize=auto;html=1;entryX=0.5;entryY=1;entryDx=0;entryDy=0;" edge="1" parent="1" source="G7d9W_WRkZ0tDgpjF5aS-31" target="G7d9W_WRkZ0tDgpjF5aS-13">
          <mxGeometry relative="1" as="geometry">
            <Array as="points">
              <mxPoint x="380" y="360" />
              <mxPoint x="380" y="360" />
            </Array>
          </mxGeometry>
        </mxCell>
        <mxCell id="G7d9W_WRkZ0tDgpjF5aS-33" value="Não" style="edgeLabel;html=1;align=center;verticalAlign=middle;resizable=0;points=[];" vertex="1" connectable="0" parent="G7d9W_WRkZ0tDgpjF5aS-32">
          <mxGeometry x="-0.06" y="-1" relative="1" as="geometry">
            <mxPoint as="offset" />
          </mxGeometry>
        </mxCell>
        <mxCell id="G7d9W_WRkZ0tDgpjF5aS-36" style="edgeStyle=orthogonalEdgeStyle;rounded=0;orthogonalLoop=1;jettySize=auto;html=1;entryX=1;entryY=0.5;entryDx=0;entryDy=0;" edge="1" parent="1" source="G7d9W_WRkZ0tDgpjF5aS-31" target="G7d9W_WRkZ0tDgpjF5aS-35">
          <mxGeometry relative="1" as="geometry" />
        </mxCell>
        <mxCell id="G7d9W_WRkZ0tDgpjF5aS-37" value="Sim" style="edgeLabel;html=1;align=center;verticalAlign=middle;resizable=0;points=[];" vertex="1" connectable="0" parent="G7d9W_WRkZ0tDgpjF5aS-36">
          <mxGeometry x="-0.2229" y="-3" relative="1" as="geometry">
            <mxPoint as="offset" />
          </mxGeometry>
        </mxCell>
        <mxCell id="G7d9W_WRkZ0tDgpjF5aS-31" value="Produto&amp;nbsp;&lt;div&gt;Bsod&lt;/div&gt;" style="rhombus;whiteSpace=wrap;html=1;" vertex="1" parent="1">
          <mxGeometry x="340" y="390" width="80" height="80" as="geometry" />
        </mxCell>
        <mxCell id="G7d9W_WRkZ0tDgpjF5aS-39" value="" style="edgeStyle=orthogonalEdgeStyle;rounded=0;orthogonalLoop=1;jettySize=auto;html=1;" edge="1" parent="1" source="G7d9W_WRkZ0tDgpjF5aS-35" target="G7d9W_WRkZ0tDgpjF5aS-38">
          <mxGeometry relative="1" as="geometry" />
        </mxCell>
        <mxCell id="G7d9W_WRkZ0tDgpjF5aS-35" value="Cancela Contrato (custo desconexão)" style="rounded=1;whiteSpace=wrap;html=1;" vertex="1" parent="1">
          <mxGeometry x="150" y="400" width="120" height="60" as="geometry" />
        </mxCell>
        <mxCell id="G7d9W_WRkZ0tDgpjF5aS-40" style="edgeStyle=orthogonalEdgeStyle;rounded=0;orthogonalLoop=1;jettySize=auto;html=1;entryX=0.5;entryY=0;entryDx=0;entryDy=0;" edge="1" parent="1" source="G7d9W_WRkZ0tDgpjF5aS-38" target="G7d9W_WRkZ0tDgpjF5aS-9">
          <mxGeometry relative="1" as="geometry">
            <Array as="points">
              <mxPoint x="20" y="570" />
              <mxPoint x="20" y="30" />
              <mxPoint x="380" y="30" />
            </Array>
          </mxGeometry>
        </mxCell>
        <mxCell id="G7d9W_WRkZ0tDgpjF5aS-38" value="Gera Novo Contrato com CNPJ a&lt;span style=&quot;background-color: transparent; color: light-dark(rgb(0, 0, 0), rgb(255, 255, 255));&quot;&gt;tivo da Claro (custo conexão)&lt;/span&gt;" style="whiteSpace=wrap;html=1;rounded=1;" vertex="1" parent="1">
          <mxGeometry x="150" y="540" width="120" height="60" as="geometry" />
        </mxCell>
      </root>
    </mxGraphModel>
  </diagram>
  <diagram name="TO-BE" id="40t6v7UxBqz6VowLNa3W">
    <mxGraphModel dx="1042" dy="561" grid="1" gridSize="10" guides="1" tooltips="1" connect="1" arrows="1" fold="1" page="1" pageScale="1" pageWidth="827" pageHeight="1169" math="0" shadow="0">
      <root>
        <mxCell id="A3aCwEUhbGdrQ32dcFWP-0" />
        <mxCell id="A3aCwEUhbGdrQ32dcFWP-1" parent="A3aCwEUhbGdrQ32dcFWP-0" />
        <mxCell id="A3aCwEUhbGdrQ32dcFWP-2" style="edgeStyle=orthogonalEdgeStyle;rounded=0;orthogonalLoop=1;jettySize=auto;html=1;" edge="1" parent="A3aCwEUhbGdrQ32dcFWP-1" source="A3aCwEUhbGdrQ32dcFWP-3" target="A3aCwEUhbGdrQ32dcFWP-12">
          <mxGeometry relative="1" as="geometry" />
        </mxCell>
        <mxCell id="A3aCwEUhbGdrQ32dcFWP-3" value="NETSMS" style="rounded=1;whiteSpace=wrap;html=1;" vertex="1" parent="A3aCwEUhbGdrQ32dcFWP-1">
          <mxGeometry x="150" y="50" width="120" height="60" as="geometry" />
        </mxCell>
        <mxCell id="A3aCwEUhbGdrQ32dcFWP-4" style="edgeStyle=orthogonalEdgeStyle;rounded=0;orthogonalLoop=1;jettySize=auto;html=1;entryX=0;entryY=0.5;entryDx=0;entryDy=0;" edge="1" parent="A3aCwEUhbGdrQ32dcFWP-1" source="A3aCwEUhbGdrQ32dcFWP-6" target="A3aCwEUhbGdrQ32dcFWP-3">
          <mxGeometry relative="1" as="geometry" />
        </mxCell>
        <mxCell id="A3aCwEUhbGdrQ32dcFWP-5" style="edgeStyle=orthogonalEdgeStyle;rounded=0;orthogonalLoop=1;jettySize=auto;html=1;entryX=0;entryY=0.5;entryDx=0;entryDy=0;" edge="1" parent="A3aCwEUhbGdrQ32dcFWP-1" source="A3aCwEUhbGdrQ32dcFWP-6" target="A3aCwEUhbGdrQ32dcFWP-14">
          <mxGeometry relative="1" as="geometry" />
        </mxCell>
        <mxCell id="A3aCwEUhbGdrQ32dcFWP-6" value="Acesso Restrito&amp;nbsp;&lt;div&gt;BKO Embratel&lt;/div&gt;" style="shape=umlActor;verticalLabelPosition=bottom;verticalAlign=top;html=1;outlineConnect=0;" vertex="1" parent="A3aCwEUhbGdrQ32dcFWP-1">
          <mxGeometry x="62" y="50" width="30" height="60" as="geometry" />
        </mxCell>
        <mxCell id="A3aCwEUhbGdrQ32dcFWP-7" value="Registra Contrato sem faturamento no NETSMS" style="rounded=1;whiteSpace=wrap;html=1;" vertex="1" parent="A3aCwEUhbGdrQ32dcFWP-1">
          <mxGeometry x="490" y="50" width="120" height="60" as="geometry" />
        </mxCell>
        <mxCell id="A3aCwEUhbGdrQ32dcFWP-8" value="- Contrato somente fictício&lt;div&gt;- Atualmente o CNPJ do consumidor é da Embratel/Claro&lt;/div&gt;&lt;div&gt;- Antigamente também era assim (Primesys, outros)&lt;/div&gt;" style="text;html=1;align=left;verticalAlign=middle;whiteSpace=wrap;rounded=0;fontStyle=2" vertex="1" parent="A3aCwEUhbGdrQ32dcFWP-1">
          <mxGeometry x="460" y="90" width="180" height="130" as="geometry" />
        </mxCell>
        <mxCell id="A3aCwEUhbGdrQ32dcFWP-9" value="NETSMS" style="shape=cylinder3;whiteSpace=wrap;html=1;boundedLbl=1;backgroundOutline=1;size=15;" vertex="1" parent="A3aCwEUhbGdrQ32dcFWP-1">
          <mxGeometry x="650" y="120" width="170" height="80" as="geometry" />
        </mxCell>
        <mxCell id="A3aCwEUhbGdrQ32dcFWP-10" style="edgeStyle=orthogonalEdgeStyle;rounded=0;orthogonalLoop=1;jettySize=auto;html=1;entryX=0.5;entryY=0;entryDx=0;entryDy=0;entryPerimeter=0;" edge="1" parent="A3aCwEUhbGdrQ32dcFWP-1" source="A3aCwEUhbGdrQ32dcFWP-7" target="A3aCwEUhbGdrQ32dcFWP-9">
          <mxGeometry relative="1" as="geometry" />
        </mxCell>
        <mxCell id="A3aCwEUhbGdrQ32dcFWP-11" style="edgeStyle=orthogonalEdgeStyle;rounded=0;orthogonalLoop=1;jettySize=auto;html=1;entryX=0;entryY=0.5;entryDx=0;entryDy=0;" edge="1" parent="A3aCwEUhbGdrQ32dcFWP-1" source="A3aCwEUhbGdrQ32dcFWP-12" target="A3aCwEUhbGdrQ32dcFWP-7">
          <mxGeometry relative="1" as="geometry" />
        </mxCell>
        <mxCell id="A3aCwEUhbGdrQ32dcFWP-12" value="Venda Prospect" style="rounded=1;whiteSpace=wrap;html=1;" vertex="1" parent="A3aCwEUhbGdrQ32dcFWP-1">
          <mxGeometry x="320" y="50" width="120" height="60" as="geometry" />
        </mxCell>
        <mxCell id="A3aCwEUhbGdrQ32dcFWP-13" value="" style="edgeStyle=orthogonalEdgeStyle;rounded=0;orthogonalLoop=1;jettySize=auto;html=1;" edge="1" parent="A3aCwEUhbGdrQ32dcFWP-1" source="A3aCwEUhbGdrQ32dcFWP-14" target="A3aCwEUhbGdrQ32dcFWP-16">
          <mxGeometry relative="1" as="geometry" />
        </mxCell>
        <mxCell id="A3aCwEUhbGdrQ32dcFWP-14" value="Venda Base" style="rounded=1;whiteSpace=wrap;html=1;" vertex="1" parent="A3aCwEUhbGdrQ32dcFWP-1">
          <mxGeometry x="150" y="270" width="120" height="60" as="geometry" />
        </mxCell>
        <mxCell id="A3aCwEUhbGdrQ32dcFWP-15" style="edgeStyle=orthogonalEdgeStyle;rounded=0;orthogonalLoop=1;jettySize=auto;html=1;entryX=0;entryY=0.5;entryDx=0;entryDy=0;" edge="1" parent="A3aCwEUhbGdrQ32dcFWP-1" source="A3aCwEUhbGdrQ32dcFWP-16" target="A3aCwEUhbGdrQ32dcFWP-18">
          <mxGeometry relative="1" as="geometry" />
        </mxCell>
        <mxCell id="A3aCwEUhbGdrQ32dcFWP-16" value="Mudança de Pacote" style="whiteSpace=wrap;html=1;rounded=1;" vertex="1" parent="A3aCwEUhbGdrQ32dcFWP-1">
          <mxGeometry x="320" y="270" width="120" height="60" as="geometry" />
        </mxCell>
        <mxCell id="A3aCwEUhbGdrQ32dcFWP-17" style="edgeStyle=orthogonalEdgeStyle;rounded=0;orthogonalLoop=1;jettySize=auto;html=1;entryX=0;entryY=0.5;entryDx=0;entryDy=0;" edge="1" parent="A3aCwEUhbGdrQ32dcFWP-1" source="A3aCwEUhbGdrQ32dcFWP-18" target="A3aCwEUhbGdrQ32dcFWP-23">
          <mxGeometry relative="1" as="geometry" />
        </mxCell>
        <mxCell id="A3aCwEUhbGdrQ32dcFWP-18" value="Checagem de Crédito" style="whiteSpace=wrap;html=1;rounded=1;" vertex="1" parent="A3aCwEUhbGdrQ32dcFWP-1">
          <mxGeometry x="490" y="270" width="120" height="60" as="geometry" />
        </mxCell>
        <mxCell id="A3aCwEUhbGdrQ32dcFWP-19" style="edgeStyle=orthogonalEdgeStyle;rounded=0;orthogonalLoop=1;jettySize=auto;html=1;" edge="1" parent="A3aCwEUhbGdrQ32dcFWP-1" source="A3aCwEUhbGdrQ32dcFWP-23" target="A3aCwEUhbGdrQ32dcFWP-9">
          <mxGeometry relative="1" as="geometry" />
        </mxCell>
        <mxCell id="A3aCwEUhbGdrQ32dcFWP-20" value="Sim - Altera pacote" style="edgeLabel;html=1;align=center;verticalAlign=middle;resizable=0;points=[];" vertex="1" connectable="0" parent="A3aCwEUhbGdrQ32dcFWP-19">
          <mxGeometry x="0.04" y="2" relative="1" as="geometry">
            <mxPoint as="offset" />
          </mxGeometry>
        </mxCell>
        <mxCell id="A3aCwEUhbGdrQ32dcFWP-21" style="edgeStyle=orthogonalEdgeStyle;rounded=0;orthogonalLoop=1;jettySize=auto;html=1;entryX=0.5;entryY=0;entryDx=0;entryDy=0;" edge="1" parent="A3aCwEUhbGdrQ32dcFWP-1" source="A3aCwEUhbGdrQ32dcFWP-23" target="A3aCwEUhbGdrQ32dcFWP-25">
          <mxGeometry relative="1" as="geometry" />
        </mxCell>
        <mxCell id="A3aCwEUhbGdrQ32dcFWP-22" value="Não" style="edgeLabel;html=1;align=center;verticalAlign=middle;resizable=0;points=[];" vertex="1" connectable="0" parent="A3aCwEUhbGdrQ32dcFWP-21">
          <mxGeometry x="-0.1733" y="3" relative="1" as="geometry">
            <mxPoint as="offset" />
          </mxGeometry>
        </mxCell>
        <mxCell id="A3aCwEUhbGdrQ32dcFWP-23" value="CNPJ Ativo" style="rhombus;whiteSpace=wrap;html=1;" vertex="1" parent="A3aCwEUhbGdrQ32dcFWP-1">
          <mxGeometry x="695" y="260" width="80" height="80" as="geometry" />
        </mxCell>
        <mxCell id="A3aCwEUhbGdrQ32dcFWP-24" value="" style="edgeStyle=orthogonalEdgeStyle;rounded=0;orthogonalLoop=1;jettySize=auto;html=1;" edge="1" parent="A3aCwEUhbGdrQ32dcFWP-1" source="A3aCwEUhbGdrQ32dcFWP-25" target="A3aCwEUhbGdrQ32dcFWP-28">
          <mxGeometry relative="1" as="geometry" />
        </mxCell>
        <mxCell id="A3aCwEUhbGdrQ32dcFWP-25" value="Aborta Mudança" style="rounded=1;whiteSpace=wrap;html=1;" vertex="1" parent="A3aCwEUhbGdrQ32dcFWP-1">
          <mxGeometry x="675" y="400" width="120" height="60" as="geometry" />
        </mxCell>
        <mxCell id="A3aCwEUhbGdrQ32dcFWP-26" value="&lt;div&gt;- Primesys está com CNPJ inativo. Impedimento de realizar mudança de titularidade.&lt;/div&gt;" style="text;html=1;align=left;verticalAlign=middle;whiteSpace=wrap;rounded=0;fontStyle=2" vertex="1" parent="A3aCwEUhbGdrQ32dcFWP-1">
          <mxGeometry x="640" y="470" width="180" height="50" as="geometry" />
        </mxCell>
        <mxCell id="A3aCwEUhbGdrQ32dcFWP-27" style="edgeStyle=orthogonalEdgeStyle;rounded=0;orthogonalLoop=1;jettySize=auto;html=1;entryX=1;entryY=0.5;entryDx=0;entryDy=0;" edge="1" parent="A3aCwEUhbGdrQ32dcFWP-1" source="A3aCwEUhbGdrQ32dcFWP-28" target="A3aCwEUhbGdrQ32dcFWP-33">
          <mxGeometry relative="1" as="geometry" />
        </mxCell>
        <mxCell id="A3aCwEUhbGdrQ32dcFWP-28" value="Alteração de Titularidade pra CNPJ ativo da Claro" style="whiteSpace=wrap;html=1;rounded=1;" vertex="1" parent="A3aCwEUhbGdrQ32dcFWP-1">
          <mxGeometry x="490" y="400" width="120" height="60" as="geometry" />
        </mxCell>
        <mxCell id="A3aCwEUhbGdrQ32dcFWP-29" style="edgeStyle=orthogonalEdgeStyle;rounded=0;orthogonalLoop=1;jettySize=auto;html=1;entryX=0.5;entryY=1;entryDx=0;entryDy=0;" edge="1" parent="A3aCwEUhbGdrQ32dcFWP-1" source="A3aCwEUhbGdrQ32dcFWP-33" target="A3aCwEUhbGdrQ32dcFWP-16">
          <mxGeometry relative="1" as="geometry">
            <Array as="points">
              <mxPoint x="380" y="360" />
              <mxPoint x="380" y="360" />
            </Array>
          </mxGeometry>
        </mxCell>
        <mxCell id="A3aCwEUhbGdrQ32dcFWP-30" value="Não" style="edgeLabel;html=1;align=center;verticalAlign=middle;resizable=0;points=[];" vertex="1" connectable="0" parent="A3aCwEUhbGdrQ32dcFWP-29">
          <mxGeometry x="-0.06" y="-1" relative="1" as="geometry">
            <mxPoint as="offset" />
          </mxGeometry>
        </mxCell>
        <mxCell id="A3aCwEUhbGdrQ32dcFWP-31" style="edgeStyle=orthogonalEdgeStyle;rounded=0;orthogonalLoop=1;jettySize=auto;html=1;entryX=1;entryY=0.5;entryDx=0;entryDy=0;" edge="1" parent="A3aCwEUhbGdrQ32dcFWP-1" source="A3aCwEUhbGdrQ32dcFWP-33" target="A3aCwEUhbGdrQ32dcFWP-35">
          <mxGeometry relative="1" as="geometry" />
        </mxCell>
        <mxCell id="A3aCwEUhbGdrQ32dcFWP-32" value="Sim" style="edgeLabel;html=1;align=center;verticalAlign=middle;resizable=0;points=[];" vertex="1" connectable="0" parent="A3aCwEUhbGdrQ32dcFWP-31">
          <mxGeometry x="-0.2229" y="-3" relative="1" as="geometry">
            <mxPoint as="offset" />
          </mxGeometry>
        </mxCell>
        <mxCell id="A3aCwEUhbGdrQ32dcFWP-33" value="Produto&amp;nbsp;&lt;div&gt;Bsod&lt;/div&gt;" style="rhombus;whiteSpace=wrap;html=1;" vertex="1" parent="A3aCwEUhbGdrQ32dcFWP-1">
          <mxGeometry x="340" y="390" width="80" height="80" as="geometry" />
        </mxCell>
        <mxCell id="A3aCwEUhbGdrQ32dcFWP-34" value="" style="edgeStyle=orthogonalEdgeStyle;rounded=0;orthogonalLoop=1;jettySize=auto;html=1;" edge="1" parent="A3aCwEUhbGdrQ32dcFWP-1" source="A3aCwEUhbGdrQ32dcFWP-35" target="A3aCwEUhbGdrQ32dcFWP-37">
          <mxGeometry relative="1" as="geometry" />
        </mxCell>
        <mxCell id="A3aCwEUhbGdrQ32dcFWP-35" value="Cancela Contrato (custo desconexão)" style="rounded=1;whiteSpace=wrap;html=1;" vertex="1" parent="A3aCwEUhbGdrQ32dcFWP-1">
          <mxGeometry x="150" y="400" width="120" height="60" as="geometry" />
        </mxCell>
        <mxCell id="A3aCwEUhbGdrQ32dcFWP-36" style="edgeStyle=orthogonalEdgeStyle;rounded=0;orthogonalLoop=1;jettySize=auto;html=1;entryX=0.5;entryY=0;entryDx=0;entryDy=0;" edge="1" parent="A3aCwEUhbGdrQ32dcFWP-1" source="A3aCwEUhbGdrQ32dcFWP-37" target="A3aCwEUhbGdrQ32dcFWP-12">
          <mxGeometry relative="1" as="geometry">
            <Array as="points">
              <mxPoint x="20" y="570" />
              <mxPoint x="20" y="30" />
              <mxPoint x="380" y="30" />
            </Array>
          </mxGeometry>
        </mxCell>
        <mxCell id="A3aCwEUhbGdrQ32dcFWP-37" value="Gera Novo Contrato com CNPJ a&lt;span style=&quot;background-color: transparent; color: light-dark(rgb(0, 0, 0), rgb(255, 255, 255));&quot;&gt;tivo da Claro (custo conexão)&lt;/span&gt;" style="whiteSpace=wrap;html=1;rounded=1;" vertex="1" parent="A3aCwEUhbGdrQ32dcFWP-1">
          <mxGeometry x="150" y="540" width="120" height="60" as="geometry" />
        </mxCell>
      </root>
    </mxGraphModel>
  </diagram>
</mxfile>
